<svg width="20" height="21" viewBox="0 0 20 21" fill="none" xmlns="http://www.w3.org/2000/svg">
<g clip-path="url(#clip0_60_14)">
<mask id="mask0_60_14" style="mask-type:luminance" maskUnits="userSpaceOnUse" x="0" y="0" width="20" height="21">
<path d="M20 0.706787H0V20.7068H20V0.706787Z" fill="white"/>
</mask>
<g mask="url(#mask0_60_14)">
<path d="M10 0.706787C7.28624 0.706787 6.945 0.719287 5.87875 0.766787C4.8125 0.816787 4.08624 0.984287 3.45 1.23179C2.78262 1.48281 2.17811 1.87656 1.67876 2.38554C1.1701 2.88515 0.776384 3.48959 0.525 4.15679C0.2775 4.79179 0.10875 5.51929 0.06 6.58179C0.0125 7.65053 0 7.99054 0 10.708C0 13.423 0.0125 13.763 0.06 14.8293C0.11 15.8943 0.2775 16.6206 0.525 17.2568C0.78125 17.9142 1.1225 18.4718 1.67876 19.028C2.23376 19.5842 2.79126 19.9268 3.44876 20.1818C4.08626 20.4292 4.81126 20.598 5.87626 20.6468C6.94376 20.6943 7.28376 20.7068 10 20.7068C12.7162 20.7068 13.055 20.6943 14.1226 20.6468C15.1862 20.5968 15.915 20.4292 16.5512 20.1818C17.2182 19.9307 17.8222 19.5369 18.3212 19.028C18.8774 18.4718 19.2188 17.9142 19.475 17.2568C19.7212 16.6206 19.89 15.8943 19.94 14.8293C19.9876 13.763 20 13.423 20 10.7068C20 7.99054 19.9876 7.65054 19.94 6.58304C19.89 5.51929 19.7212 4.79179 19.475 4.15679C19.2237 3.48957 18.8299 2.88513 18.3212 2.38554C17.822 1.87639 17.2174 1.48259 16.55 1.23179C15.9124 0.984287 15.185 0.815537 14.1212 0.766787C13.0538 0.719287 12.715 0.706787 9.9975 0.706787H10.0013H10ZM9.10374 2.50929H10.0013C12.6712 2.50929 12.9874 2.51804 14.0412 2.56679C15.0162 2.61054 15.5462 2.77429 15.8988 2.91054C16.365 3.09179 16.6988 3.30929 17.0488 3.65929C17.3988 4.00929 17.615 4.34179 17.7962 4.80929C17.9338 5.16054 18.0962 5.69054 18.14 6.66553C18.1888 7.71929 18.1988 8.03554 18.1988 10.7043C18.1988 13.373 18.1888 13.6906 18.14 14.7442C18.0962 15.7192 17.9324 16.248 17.7962 16.6006C17.6359 17.0348 17.38 17.4273 17.0474 17.7493C16.6974 18.0992 16.365 18.3156 15.8976 18.4968C15.5476 18.6343 15.0174 18.7968 14.0412 18.8418C12.9874 18.8893 12.6712 18.9006 10.0013 18.9006C7.33126 18.9006 7.01376 18.8893 5.96 18.8418C4.985 18.7968 4.45624 18.6343 4.10376 18.4968C3.66938 18.3367 3.27641 18.0812 2.95374 17.7493C2.62093 17.4268 2.36466 17.0339 2.20376 16.5992C2.0675 16.248 1.90376 15.718 1.86 14.743C1.8125 13.6892 1.8025 13.373 1.8025 10.7018C1.8025 8.03179 1.8125 7.71679 1.86 6.66303C1.905 5.68803 2.0675 5.15803 2.205 4.80553C2.38624 4.33929 2.60374 4.00553 2.95374 3.65553C3.30374 3.30554 3.63624 3.08929 4.10376 2.90803C4.45624 2.77054 4.985 2.60804 5.96 2.56303C6.8825 2.52054 7.24 2.50804 9.10374 2.50679V2.50929ZM15.3388 4.16929C15.1811 4.16929 15.0251 4.20033 14.8796 4.26063C14.7339 4.32094 14.6017 4.40933 14.4902 4.52075C14.3788 4.63219 14.2904 4.76448 14.2301 4.91007C14.1698 5.05565 14.1388 5.2117 14.1388 5.36929C14.1388 5.52688 14.1698 5.68292 14.2301 5.82851C14.2904 5.9741 14.3788 6.10639 14.4902 6.21782C14.6017 6.32924 14.7339 6.41763 14.8796 6.47794C15.0251 6.53824 15.1811 6.56929 15.3388 6.56929C15.657 6.56929 15.9622 6.44285 16.1873 6.21782C16.4123 5.99278 16.5388 5.68754 16.5388 5.36929C16.5388 5.05103 16.4123 4.7458 16.1873 4.52075C15.9622 4.29572 15.657 4.16929 15.3388 4.16929ZM10.0013 5.57179C9.32009 5.56117 8.64362 5.68614 8.01122 5.93947C7.37882 6.19279 6.80314 6.56938 6.31769 7.04732C5.83223 7.52525 5.4467 8.095 5.18356 8.72337C4.9204 9.35173 4.78488 10.0262 4.78488 10.7074C4.78488 11.3887 4.9204 12.0631 5.18356 12.6915C5.4467 13.3198 5.83223 13.8896 6.31769 14.3675C6.80314 14.8455 7.37882 15.222 8.01122 15.4753C8.64362 15.7287 9.32009 15.8537 10.0013 15.843C11.3494 15.822 12.6352 15.2717 13.5812 14.3109C14.5272 13.35 15.0573 12.0558 15.0573 10.7074C15.0573 9.35908 14.5272 8.0648 13.5812 7.10398C12.6352 6.14314 11.3494 5.59282 10.0013 5.57179ZM10.0013 7.37304C10.8854 7.37304 11.7333 7.72427 12.3586 8.34946C12.9838 8.97466 13.335 9.82262 13.335 10.7068C13.335 11.591 12.9838 12.4389 12.3586 13.0641C11.7333 13.6893 10.8854 14.0406 10.0013 14.0406C9.11709 14.0406 8.26913 13.6893 7.64393 13.0641C7.01873 12.4389 6.6675 11.591 6.6675 10.7068C6.6675 9.82262 7.01873 8.97466 7.64393 8.34946C8.26913 7.72427 9.11709 7.37304 10.0013 7.37304Z" fill="black"/>
</g>
</g>
<defs>
<clipPath id="clip0_60_14">
<rect width="20" height="20" fill="white" transform="translate(0 0.706787)"/>
</clipPath>
</defs>
</svg>
